<?xml version="1.0" encoding="utf-8"?>
<!-- Generator: Adobe Illustrator 21.0.0, SVG Export Plug-In . SVG Version: 6.00 Build 0)  -->
<svg version="1.1"
	 id="svg39" xmlns:cc="http://creativecommons.org/ns#" xmlns:dc="http://purl.org/dc/elements/1.1/" xmlns:rdf="http://www.w3.org/1999/02/22-rdf-syntax-ns#" xmlns:svg="http://www.w3.org/2000/svg"
	 xmlns="http://www.w3.org/2000/svg" xmlns:xlink="http://www.w3.org/1999/xlink" x="0px" y="0px" viewBox="0 0 395.3 189.7"
	 enable-background="new 0 0 395.3 189.7" xml:space="preserve">
<g id="Layer1000">
	<path id="path2" fill="#1B1918" d="M298.9,90.4c-0.7-0.1-1.4-0.3-2.3-0.3c-0.8-0.1-1.7-0.1-2.7-0.1c-3.5,0-6.1,0.4-8,1.3
		c-1.9,0.9-2.8,2.1-2.8,3.7v7.4H277v-14h6.2v2.2c1.3-0.9,3-1.5,5-1.9c2.1-0.4,4.6-0.6,7.5-0.6c0.4,0,0.9,0,1.4,0
		c0.5,0,1.1,0.1,1.7,0.1L298.9,90.4z M337.1,94.7v1.1h-28.2c0.3,1.6,1.5,2.8,3.8,3.6c2.3,0.8,5.5,1.2,9.5,1.2c2.4,0,4.6-0.1,6.9-0.3
		c2.2-0.2,4.4-0.5,6.6-1v2.2c-2.2,0.4-4.5,0.6-6.8,0.8c-2.3,0.2-4.7,0.3-7,0.3c-6,0-10.7-0.7-14.2-2c-3.5-1.3-5.2-3.1-5.2-5.3
		c0-2.3,1.7-4.1,5-5.5c3.3-1.3,7.8-2,13.4-2c5,0,9,0.6,11.9,1.8C335.7,90.9,337.1,92.6,337.1,94.7z M331,94c0-1.3-1-2.3-2.8-3
		c-1.8-0.8-4.3-1.1-7.3-1.1c-3.4,0-6.2,0.4-8.2,1.1c-2.1,0.7-3.2,1.7-3.6,3.1L331,94z M363.5,95.2c-5,0-8.4,0.2-10.3,0.6
		c-1.9,0.4-2.9,1.2-2.9,2.2c0,0.8,0.7,1.5,2.2,2c1.4,0.5,3.4,0.7,5.9,0.7c3.4,0,6.1-0.5,8.2-1.4c2.1-0.9,3.1-2.1,3.1-3.6v-0.5
		L363.5,95.2z M375.7,94.3v8h-6.1v-2.1c-1.4,0.9-3.1,1.5-5.2,1.9c-2.1,0.4-4.6,0.6-7.7,0.6c-3.8,0-6.9-0.4-9.1-1.2
		c-2.3-0.8-3.4-1.9-3.4-3.2c0-1.6,1.4-2.8,4.2-3.6c2.8-0.8,7-1.2,12.6-1.2h8.6v-0.2c0-1.1-0.9-1.9-2.8-2.5c-1.9-0.6-4.5-0.9-7.8-0.9
		c-2.1,0-4.2,0.1-6.2,0.3c-2,0.2-4,0.5-5.8,0.9v-2.1c2.2-0.3,4.4-0.6,6.5-0.7c2.1-0.2,4.2-0.2,6.2-0.2c5.4,0,9.4,0.5,12.1,1.6
		C374.4,90.5,375.7,92.1,375.7,94.3L375.7,94.3z M384.3,82.8h6.1v19.5h-6.1V82.8z"/>
	<path id="path4" fill="#1B1918" d="M115.4,112.8v5.4h-2.9v-12.9h6.1c1,0,1.9,0,2.6,0.1c0.7,0,1.4,0.1,2,0.2
		c1.7,0.2,2.9,0.7,3.8,1.3c0.9,0.6,1.3,1.3,1.3,2.2c0,0.5-0.2,1-0.5,1.4c-0.3,0.4-0.7,0.8-1.3,1.1c-0.6,0.3-1.2,0.6-2,0.7
		c-0.8,0.2-1.6,0.3-2.6,0.4v0l7.7,5.5h-3.6l-7.3-5.4L115.4,112.8z M115.4,106.6v4.7h2.8c0.9,0,1.6,0,2.3,0c0.6,0,1.2-0.1,1.7-0.2
		c1-0.2,1.8-0.4,2.3-0.8c0.5-0.4,0.8-0.8,0.8-1.4c0-0.6-0.3-1-0.8-1.3c-0.5-0.3-1.2-0.6-2.1-0.7c-0.4-0.1-0.9-0.1-1.5-0.2
		c-0.6,0-1.3,0-2.2,0L115.4,106.6z M139.4,110c-0.6,0-1.2,0.1-1.7,0.2c-0.5,0.1-1,0.3-1.4,0.6c-0.4,0.2-0.7,0.5-1,0.8
		c-0.2,0.3-0.4,0.6-0.5,1h8.5c0-0.4-0.1-0.7-0.3-1c-0.2-0.3-0.4-0.6-0.7-0.8c-0.3-0.2-0.7-0.4-1.2-0.5
		C140.6,110.1,140.1,110,139.4,110L139.4,110z M140.9,117.1c0.9,0,1.7,0,2.5-0.1c0.7-0.1,1.5-0.2,2.2-0.3v1.2
		c-0.6,0.2-1.3,0.3-2.2,0.4c-0.9,0.1-1.8,0.1-2.8,0.1c-1.2,0-2.3-0.1-3.4-0.3c-1.1-0.2-2-0.4-2.8-0.8c-0.8-0.4-1.4-0.9-1.9-1.5
		c-0.5-0.6-0.7-1.3-0.7-2.2c0-0.8,0.2-1.6,0.6-2.2c0.4-0.6,1-1.1,1.7-1.5c0.7-0.4,1.5-0.7,2.4-0.9c0.9-0.2,1.9-0.3,2.9-0.3
		c0.9,0,1.8,0.1,2.6,0.3c0.8,0.2,1.5,0.4,2.1,0.8c0.6,0.4,1.1,0.8,1.4,1.4c0.3,0.6,0.5,1.3,0.5,2.1c0,0.1,0,0.1,0,0.2
		c0,0.1,0,0.2,0,0.4h-11.5c0,0.6,0.2,1.1,0.5,1.5c0.3,0.4,0.8,0.7,1.3,1c0.6,0.3,1.2,0.4,2,0.6C139.3,117,140.1,117.1,140.9,117.1
		L140.9,117.1z M160.7,117.1L160.7,117.1c-0.3,0.2-0.6,0.3-0.9,0.5c-0.3,0.1-0.7,0.3-1.2,0.4c-0.4,0.1-0.9,0.2-1.5,0.3
		c-0.5,0.1-1.1,0.1-1.7,0.1c-0.8,0-1.6-0.1-2.2-0.2c-0.7-0.1-1.3-0.3-1.8-0.6c-0.5-0.3-0.9-0.6-1.1-0.9c-0.3-0.4-0.4-0.8-0.4-1.2
		c0-0.5,0.2-0.9,0.5-1.2c0.3-0.4,0.7-0.7,1.3-0.9c0.5-0.3,1.2-0.4,1.9-0.6c0.8-0.1,1.6-0.2,2.5-0.2c0.9,0,1.7,0,2.4,0.1
		c0.7,0.1,1.4,0.2,2,0.3h0.1v-0.6c0-0.3,0-0.5-0.1-0.7c-0.1-0.2-0.2-0.4-0.3-0.5c-0.3-0.3-0.8-0.6-1.5-0.8c-0.7-0.2-1.6-0.3-2.7-0.3
		c-0.8,0-1.6,0-2.4,0.1c-0.7,0.1-1.5,0.2-2.2,0.4v-1.3c0.3-0.1,0.6-0.2,1-0.2c0.4-0.1,0.8-0.1,1.2-0.2c0.4,0,0.9-0.1,1.3-0.1
		c0.5,0,0.9,0,1.4,0c1.7,0,3.1,0.2,4.2,0.5c1.1,0.3,1.9,0.8,2.3,1.3c0.2,0.2,0.3,0.4,0.4,0.7c0.1,0.2,0.1,0.5,0.1,0.8v6.1H161
		L160.7,117.1z M160.6,114.1c-0.5-0.1-1.1-0.2-1.8-0.2c-0.7-0.1-1.5-0.1-2.3-0.1c-1.2,0-2.1,0.1-2.7,0.4c-0.7,0.3-1,0.7-1,1.2
		c0,0.3,0.1,0.5,0.2,0.7c0.2,0.2,0.4,0.4,0.7,0.5c0.3,0.1,0.6,0.2,1,0.3c0.4,0.1,0.8,0.1,1.3,0.1c0.6,0,1.1,0,1.6-0.1
		c0.5-0.1,1-0.2,1.4-0.3c0.4-0.1,0.7-0.3,1-0.4c0.3-0.1,0.5-0.2,0.6-0.3L160.6,114.1z M168.8,118.2v-14h2.7v14H168.8z M176.3,118.2
		V109h2.7v9.2H176.3z M176.3,106.8v-1.7h2.9v1.7H176.3z M192.3,118.2c-0.2,0-0.6,0.1-1.1,0.1c-0.5,0-1.1,0.1-1.7,0.1
		c-0.9,0-1.6-0.1-2.3-0.2c-0.7-0.1-1.2-0.3-1.6-0.5c-0.4-0.2-0.7-0.5-1-0.8c-0.2-0.3-0.3-0.7-0.3-1.1v-5.6h-3.2V109h3.2v-2.5h2.7
		v2.5h5v1.3h-5v5.4c0,0.2,0.1,0.4,0.2,0.6c0.1,0.2,0.3,0.3,0.5,0.5c0.2,0.1,0.5,0.2,0.9,0.3c0.4,0.1,0.8,0.1,1.4,0.1
		c0.4,0,0.8,0,1.2,0c0.4,0,0.8-0.1,1.1-0.1V118.2z M198.7,110.2L198.7,110.2c0.4-0.2,0.7-0.4,1.1-0.6c0.4-0.2,0.8-0.3,1.2-0.5
		c0.5-0.1,1-0.2,1.5-0.3c0.5-0.1,1.1-0.1,1.8-0.1c0.8,0,1.5,0.1,2.2,0.2c0.7,0.1,1.3,0.3,1.8,0.6c0.5,0.3,0.9,0.6,1.2,1
		c0.3,0.4,0.4,0.9,0.4,1.5v6.1h-2.7v-5.9c0-0.8-0.3-1.4-0.8-1.7c-0.6-0.3-1.4-0.5-2.4-0.5c-0.9,0-1.9,0.1-2.7,0.4
		c-0.9,0.3-1.6,0.7-2.3,1.2v6.5h-2.7V109h2.1L198.7,110.2z M225,117.1L225,117.1c-0.3,0.2-0.6,0.3-0.9,0.5c-0.3,0.1-0.7,0.3-1.2,0.4
		c-0.4,0.1-0.9,0.2-1.5,0.3c-0.5,0.1-1.1,0.1-1.7,0.1c-0.8,0-1.6-0.1-2.2-0.2c-0.7-0.1-1.3-0.3-1.8-0.6c-0.5-0.3-0.9-0.6-1.1-0.9
		c-0.3-0.4-0.4-0.8-0.4-1.2c0-0.5,0.1-0.9,0.5-1.2c0.3-0.4,0.7-0.7,1.3-0.9c0.5-0.3,1.2-0.4,1.9-0.6c0.8-0.1,1.6-0.2,2.5-0.2
		c0.9,0,1.7,0,2.4,0.1c0.7,0.1,1.4,0.2,2,0.3h0.1v-0.6c0-0.3,0-0.5-0.1-0.7c-0.1-0.2-0.2-0.4-0.3-0.5c-0.3-0.3-0.8-0.6-1.5-0.8
		c-0.7-0.2-1.6-0.3-2.7-0.3c-0.8,0-1.6,0-2.4,0.1c-0.7,0.1-1.5,0.2-2.2,0.4v-1.3c0.3-0.1,0.6-0.2,1-0.2c0.4-0.1,0.8-0.1,1.2-0.2
		c0.4,0,0.9-0.1,1.3-0.1c0.5,0,0.9,0,1.4,0c1.7,0,3.1,0.2,4.2,0.5c1.1,0.3,1.9,0.8,2.3,1.3c0.2,0.2,0.3,0.4,0.4,0.7
		c0.1,0.2,0.1,0.5,0.1,0.8v6.1h-2.3L225,117.1z M224.8,114.1c-0.5-0.1-1.1-0.2-1.8-0.2c-0.7-0.1-1.5-0.1-2.3-0.1
		c-1.2,0-2.1,0.1-2.7,0.4c-0.7,0.3-1,0.7-1,1.2c0,0.3,0.1,0.5,0.2,0.7c0.2,0.2,0.4,0.4,0.7,0.5c0.3,0.1,0.6,0.2,1,0.3
		c0.4,0.1,0.8,0.1,1.3,0.1c0.6,0,1.1,0,1.6-0.1s1-0.2,1.4-0.3c0.4-0.1,0.7-0.3,1-0.4c0.3-0.1,0.5-0.2,0.6-0.3L224.8,114.1z
		 M225,103.9l-2.8,3.4h-2.3l2.2-3.4H225z M254.3,109h3.6l-8.2,4.2l8.2,5h-3.4l-8.1-4.9h0v4.9h-2.7v-14h2.7v8.9h0L254.3,109z
		 M270.9,117.1L270.9,117.1c-0.3,0.2-0.6,0.3-0.9,0.5c-0.3,0.1-0.7,0.3-1.2,0.4c-0.4,0.1-0.9,0.2-1.5,0.3c-0.5,0.1-1.1,0.1-1.7,0.1
		c-0.8,0-1.6-0.1-2.2-0.2c-0.7-0.1-1.3-0.3-1.8-0.6c-0.5-0.3-0.9-0.6-1.1-0.9c-0.3-0.4-0.4-0.8-0.4-1.2c0-0.5,0.2-0.9,0.5-1.2
		c0.3-0.4,0.7-0.7,1.3-0.9c0.5-0.3,1.2-0.4,1.9-0.6c0.8-0.1,1.6-0.2,2.5-0.2c0.9,0,1.7,0,2.4,0.1c0.7,0.1,1.4,0.2,2,0.3h0.1v-0.6
		c0-0.3,0-0.5-0.1-0.7c-0.1-0.2-0.2-0.4-0.3-0.5c-0.3-0.3-0.8-0.6-1.5-0.8c-0.7-0.2-1.6-0.3-2.7-0.3c-0.8,0-1.6,0-2.4,0.1
		c-0.7,0.1-1.5,0.2-2.2,0.4v-1.3c0.3-0.1,0.6-0.2,1-0.2c0.4-0.1,0.8-0.1,1.2-0.2c0.4,0,0.9-0.1,1.3-0.1c0.5,0,0.9,0,1.4,0
		c1.7,0,3.1,0.2,4.2,0.5c1.1,0.3,1.9,0.8,2.3,1.3c0.2,0.2,0.3,0.4,0.4,0.7c0.1,0.2,0.1,0.5,0.1,0.8v6.1h-2.3L270.9,117.1z
		 M270.7,114.1c-0.5-0.1-1.1-0.2-1.8-0.2c-0.7-0.1-1.5-0.1-2.3-0.1c-1.2,0-2.1,0.1-2.7,0.4c-0.7,0.3-1,0.7-1,1.2
		c0,0.3,0.1,0.5,0.2,0.7c0.2,0.2,0.4,0.4,0.7,0.5c0.3,0.1,0.6,0.2,1,0.3c0.4,0.1,0.8,0.1,1.3,0.1c0.6,0,1.1,0,1.6-0.1
		c0.5-0.1,1-0.2,1.4-0.3c0.4-0.1,0.7-0.3,1-0.4c0.3-0.1,0.5-0.2,0.6-0.3L270.7,114.1z M281.4,110.2L281.4,110.2
		c0.4-0.2,0.7-0.4,1.1-0.6c0.4-0.2,0.8-0.3,1.2-0.5c0.5-0.1,1-0.2,1.5-0.3c0.5-0.1,1.1-0.1,1.8-0.1c0.8,0,1.5,0.1,2.2,0.2
		c0.7,0.1,1.3,0.3,1.8,0.6c0.5,0.3,0.9,0.6,1.2,1c0.3,0.4,0.4,0.9,0.4,1.5v6.1h-2.7v-5.9c0-0.8-0.3-1.4-0.8-1.7
		c-0.6-0.3-1.4-0.5-2.4-0.5c-0.9,0-1.9,0.1-2.7,0.4c-0.9,0.3-1.6,0.7-2.3,1.2v6.5h-2.7V109h2.1L281.4,110.2z M305.1,108.7
		c0.8,0,1.6,0,2.3,0.1c0.7,0.1,1.4,0.2,1.9,0.4v1.2c-0.7-0.2-1.4-0.3-2.1-0.3c-0.6-0.1-1.3-0.1-1.9-0.1c-0.7,0-1.4,0.1-2,0.2
		c-0.7,0.1-1.3,0.3-1.8,0.6c-0.5,0.3-1,0.7-1.3,1.1c-0.3,0.5-0.5,1-0.5,1.7c0,0.5,0.1,1,0.4,1.4c0.2,0.4,0.6,0.8,1.1,1.1
		c0.5,0.3,1.1,0.5,1.8,0.7c0.7,0.2,1.6,0.3,2.5,0.3c0.7,0,1.4,0,2.1-0.1c0.7-0.1,1.4-0.2,2-0.3v1.2c-0.2,0.1-0.5,0.1-0.8,0.2
		c-0.3,0.1-0.7,0.1-1.1,0.2c-0.4,0-0.8,0.1-1.2,0.1c-0.4,0-0.9,0-1.3,0c-1.1,0-2.2-0.1-3.2-0.3c-1-0.2-1.9-0.5-2.6-0.9
		c-0.8-0.4-1.4-0.9-1.8-1.5c-0.4-0.6-0.7-1.3-0.7-2.1c0-0.6,0.1-1.2,0.3-1.6c0.2-0.5,0.5-0.9,0.9-1.3c0.4-0.4,0.9-0.7,1.4-0.9
		c0.5-0.3,1.1-0.5,1.7-0.6c0.6-0.2,1.2-0.3,1.9-0.4C303.8,108.8,304.5,108.7,305.1,108.7L305.1,108.7z M320.3,110
		c-0.6,0-1.2,0.1-1.7,0.2c-0.5,0.1-1,0.3-1.4,0.6c-0.4,0.2-0.7,0.5-1,0.8c-0.2,0.3-0.4,0.6-0.5,1h8.5c0-0.4-0.1-0.7-0.3-1
		c-0.2-0.3-0.4-0.6-0.7-0.8c-0.3-0.2-0.7-0.4-1.2-0.5C321.5,110.1,321,110,320.3,110L320.3,110z M321.8,117.1c0.9,0,1.7,0,2.5-0.1
		c0.7-0.1,1.5-0.2,2.2-0.3v1.2c-0.6,0.2-1.3,0.3-2.2,0.4c-0.9,0.1-1.8,0.1-2.8,0.1c-1.2,0-2.3-0.1-3.4-0.3c-1.1-0.2-2-0.4-2.8-0.8
		c-0.8-0.4-1.4-0.9-1.9-1.5c-0.5-0.6-0.7-1.3-0.7-2.2c0-0.8,0.2-1.6,0.6-2.2c0.4-0.6,1-1.1,1.7-1.5c0.7-0.4,1.5-0.7,2.4-0.9
		c0.9-0.2,1.9-0.3,2.9-0.3c0.9,0,1.8,0.1,2.6,0.3c0.8,0.2,1.5,0.4,2.1,0.8c0.6,0.4,1.1,0.8,1.4,1.4c0.3,0.6,0.5,1.3,0.5,2.1
		c0,0.1,0,0.1,0,0.2c0,0.1,0,0.2,0,0.4h-11.5c0,0.6,0.2,1.1,0.5,1.5c0.3,0.4,0.8,0.7,1.3,1c0.6,0.3,1.2,0.4,2,0.6
		C320.1,117,321,117.1,321.8,117.1L321.8,117.1z M332,118.2v-14h2.7v14H332z M350,117.1L350,117.1c-0.3,0.2-0.6,0.3-0.9,0.5
		c-0.3,0.1-0.7,0.3-1.2,0.4c-0.4,0.1-0.9,0.2-1.5,0.3c-0.5,0.1-1.1,0.1-1.7,0.1c-0.8,0-1.6-0.1-2.2-0.2c-0.7-0.1-1.3-0.3-1.8-0.6
		c-0.5-0.3-0.9-0.6-1.1-0.9c-0.3-0.4-0.4-0.8-0.4-1.2c0-0.5,0.2-0.9,0.5-1.2c0.3-0.4,0.7-0.7,1.3-0.9c0.5-0.3,1.2-0.4,1.9-0.6
		c0.8-0.1,1.6-0.2,2.5-0.2c0.9,0,1.7,0,2.4,0.1c0.7,0.1,1.4,0.2,2,0.3h0.1v-0.6c0-0.3,0-0.5-0.1-0.7c-0.1-0.2-0.2-0.4-0.3-0.5
		c-0.3-0.3-0.8-0.6-1.5-0.8c-0.7-0.2-1.6-0.3-2.7-0.3c-0.8,0-1.6,0-2.4,0.1c-0.7,0.1-1.5,0.2-2.2,0.4v-1.3c0.3-0.1,0.6-0.2,1-0.2
		c0.4-0.1,0.8-0.1,1.2-0.2c0.4,0,0.9-0.1,1.3-0.1c0.5,0,0.9,0,1.4,0c1.7,0,3.1,0.2,4.2,0.5c1.1,0.3,1.9,0.8,2.3,1.3
		c0.2,0.2,0.3,0.4,0.4,0.7c0.1,0.2,0.1,0.5,0.1,0.8v6.1h-2.3L350,117.1z M349.9,114.1c-0.5-0.1-1.1-0.2-1.8-0.2
		c-0.7-0.1-1.5-0.1-2.3-0.1c-1.2,0-2.1,0.1-2.7,0.4c-0.7,0.3-1,0.7-1,1.2c0,0.3,0.1,0.5,0.2,0.7c0.2,0.2,0.4,0.4,0.7,0.5
		c0.3,0.1,0.6,0.2,1,0.3c0.4,0.1,0.8,0.1,1.3,0.1c0.6,0,1.1,0,1.6-0.1c0.5-0.1,1-0.2,1.4-0.3c0.4-0.1,0.7-0.3,1-0.4
		c0.3-0.1,0.5-0.2,0.6-0.3L349.9,114.1z M350,103.9l-2.8,3.4h-2.3l2.2-3.4H350z M367.1,110.2h-0.2c-0.7,0-1.3,0-1.9,0.1
		c-0.6,0.1-1.2,0.2-1.8,0.3c-0.5,0.1-1,0.3-1.5,0.5c-0.4,0.2-0.8,0.4-1.1,0.7v6.4h-2.7V109h2.1l0.5,1.5h0.1c0.3-0.2,0.6-0.5,1-0.7
		c0.4-0.2,0.8-0.4,1.3-0.5c0.5-0.2,1-0.3,1.6-0.4c0.6-0.1,1.2-0.1,1.9-0.1c0.1,0,0.2,0,0.4,0c0.1,0,0.2,0,0.3,0L367.1,110.2z
		 M370.2,118.2V109h2.7v9.2H370.2z M370.1,106.8v-1.7h2.9v1.7H370.1z M388.3,117.1L388.3,117.1c-0.3,0.2-0.6,0.3-0.9,0.5
		c-0.3,0.1-0.7,0.3-1.2,0.4c-0.4,0.1-0.9,0.2-1.5,0.3c-0.5,0.1-1.1,0.1-1.7,0.1c-0.8,0-1.6-0.1-2.2-0.2c-0.7-0.1-1.3-0.3-1.8-0.6
		c-0.5-0.3-0.9-0.6-1.1-0.9c-0.3-0.4-0.4-0.8-0.4-1.2c0-0.5,0.1-0.9,0.5-1.2c0.3-0.4,0.7-0.7,1.3-0.9c0.5-0.3,1.2-0.4,1.9-0.6
		c0.8-0.1,1.6-0.2,2.5-0.2c0.9,0,1.7,0,2.4,0.1c0.7,0.1,1.4,0.2,2,0.3h0.1v-0.6c0-0.3,0-0.5-0.1-0.7c-0.1-0.2-0.2-0.4-0.3-0.5
		c-0.3-0.3-0.8-0.6-1.5-0.8c-0.7-0.2-1.6-0.3-2.7-0.3c-0.8,0-1.6,0-2.4,0.1c-0.7,0.1-1.5,0.2-2.2,0.4v-1.3c0.3-0.1,0.6-0.2,1-0.2
		c0.4-0.1,0.8-0.1,1.2-0.2c0.4,0,0.9-0.1,1.3-0.1c0.5,0,0.9,0,1.4,0c1.7,0,3.1,0.2,4.2,0.5c1.1,0.3,1.9,0.8,2.3,1.3
		c0.2,0.2,0.3,0.4,0.4,0.7c0.1,0.2,0.1,0.5,0.1,0.8v6.1h-2.3L388.3,117.1z M388.1,114.1c-0.5-0.1-1.1-0.2-1.8-0.2
		c-0.7-0.1-1.5-0.1-2.3-0.1c-1.2,0-2.1,0.1-2.7,0.4c-0.7,0.3-1,0.7-1,1.2c0,0.3,0.1,0.5,0.2,0.7c0.2,0.2,0.4,0.4,0.7,0.5
		c0.3,0.1,0.6,0.2,1,0.3c0.4,0.1,0.8,0.1,1.3,0.1c0.6,0,1.1,0,1.6-0.1s1-0.2,1.4-0.3c0.4-0.1,0.7-0.3,1-0.4c0.3-0.1,0.5-0.2,0.6-0.3
		L388.1,114.1z"/>
	<path id="path6" fill="#1B1918" d="M4.1,100.7V83.4h34.7v2.9H12v3.9h15.7v2.9H12v4.3h27.1v3.3L4.1,100.7z"/>
	<path id="path8" fill="#1B1918" d="M68.5,100.7V83.4H76v14h24.3v3.3H68.5z M112.6,100.7V83.4h7.5v17.3H112.6z M162.4,86.4h-17V91
		h17c1.3,0,2.2-0.1,2.7-0.3c0.5-0.2,0.7-0.6,0.7-1.1v-1.9c0-0.5-0.2-0.9-0.7-1.1C164.6,86.5,163.7,86.4,162.4,86.4L162.4,86.4z
		 M138,100.7V83.4h27.7c2.6,0,4.4,0.3,5.6,0.8c1.2,0.5,1.7,1.4,1.7,2.6v3.9c0,1.2-0.6,2-1.7,2.5c-1.2,0.5-3,0.8-5.6,0.8h-20.3v6.7
		H138z M214,86.5h-21.2v3.7H213c3.2,0,5.3,0.3,6.4,0.9c1.1,0.6,1.7,1.7,1.7,3.2v2.4c0,1.6-0.6,2.6-1.7,3.2c-1.1,0.6-3.3,0.9-6.4,0.9
		h-20c-3.2,0-5.3-0.3-6.4-0.9c-1.1-0.6-1.7-1.7-1.7-3.2v-0.5l6.7-0.7v2h22.9v-3.9h-20.2c-3.1,0-5.3-0.3-6.4-0.9
		c-1.1-0.6-1.7-1.7-1.7-3.2v-1.9c0-1.6,0.6-2.6,1.7-3.2c1.1-0.6,3.2-0.9,6.4-0.9h18.4c3,0,5.2,0.3,6.3,0.8c1.2,0.6,1.7,1.5,1.7,3
		v0.4l-6.7,0.8V86.5z M234.2,100.7V83.4h33.2v2.9h-25.6v3.9h15v2.9h-15v4.3h25.9v3.3L234.2,100.7z"/>
	<text transform="matrix(1 0 0 1 114.8839 119.0382)" font-family="'ArialMT'" font-size="12px"> </text>
	<text transform="matrix(1 0 0 1 130.2281 119.0382)" font-family="'ArialMT'" font-size="12px"> </text>
	<text transform="matrix(1 0 0 1 138.0621 119.0382)" font-family="'ArialMT'" font-size="12px"> </text>
	<text transform="matrix(1 0 0 1 151.4068 119.0382)" font-family="'ArialMT'" font-size="12px"> </text>
	<text transform="matrix(1 0 0 1 173.7516 119.0382)" font-family="'ArialMT'" font-size="12px"> </text>
	<text transform="matrix(1 0 0 1 182.0909 119.0382)" font-family="'ArialMT'" font-size="12px"> </text>
	<text transform="matrix(1 0 0 1 187.4244 119.0382)" font-family="'ArialMT'" font-size="12px"> </text>
	<text transform="matrix(1 0 0 1 195.7638 119.0382)" font-family="'ArialMT'" font-size="12px"> </text>
	<text transform="matrix(1 0 0 1 202.0948 119.0382)" font-family="'ArialMT'" font-size="12px"> </text>
	<path id="path36" fill="#1B1918" d="M140.4,182.4c60.8-0.1,89.7-47.9,93.6-80.4c-9.3,41-49.2,71.1-93.4,71
		c-46.5-0.3-85.5-36.8-85.5-87.4c1.7-42.8,18.5-67,39.1-80.6c-17.8,8.2-48.6,34.8-48.6,82.5C45.5,139.8,88.1,182.4,140.4,182.4z"/>
</g>
</svg>
